<svg version="1" xmlns="http://www.w3.org/2000/svg" width="1920" height="1920" viewBox="0 0 1440.000000 1440.000000"><path d="M581 86c-3 .4-8.2 1-11.5 1.4-3.3.4-7.1.9-8.5 1.1-1.4.2-4.7.6-7.5.9-16.9 2.2-54.3 8.3-73 12.1-126.8 25.3-243.3 67.6-355.1 129-14.9 8.1-21.3 12.2-21.7 13.6-.7 2.5-.1 91.8.7 100.9.2 3.6.8 11.2 1.1 17 .7 12.6 1.3 20.8 2 27.5.3 2.7.8 8.4 1.1 12.5.3 4.1.7 8.2.9 9 .2.8.7 5.1 1 9.5.4 4.4.8 8.7 1 9.5.2.8.7 4 1 7 .5 5.3 2.2 17.9 3 23 .3 1.4.9 5.9 1.5 10.1.6 4.1 1.3 8.6 1.5 9.9.3 1.3.7 4 1 6 .3 2 .7 4.5.9 5.5.2 1.1.9 5.4 1.6 9.5.6 4.1 1.4 8.6 1.7 10 .4 1.4.7 2.9.8 3.5.2.5.5 2.3.8 4 .3 1.6.8 4.1 1.1 5.5.3 1.4 2 9.2 3.7 17.5 1.7 8.2 3.3 15.9 3.6 17 .2 1.1.6 3 .9 4.3.8 4.2 10.5 42.6 12 47.7 12.2 42.8 28.3 92.9 33.4 104 .5 1.1 3.2 8.1 6.1 15.5 5.2 13.8 15.3 38.6 18.8 46.2 1.1 2.4 5.4 11.9 9.6 21.3 21.8 48 53.1 105.8 81.5 150.1 28.2 43.9 74.9 107 103 138.9 3 3.5 8.2 9.4 17.3 19.9 32.7 37.3 85.1 88.5 127.2 124 28.9 24.4 79.8 63 104.8 79.5 34.1 22.5 70.3 44.6 72.7 44.4 2.6-.2 54.4-32.4 69.2-43 3.7-2.6 10.7-7.5 15.5-10.8 26.3-18.1 60.4-44.1 87.8-67.1 18.6-15.6 19.5-16.3 30.8-26.6 4.2-3.9 8.9-8 10.4-9.1 5.2-4.1 18.1-16.5 40.3-38.7 22.2-22.2 29.7-30 43.5-45.4 3.9-4.3 7.5-8.4 8.2-9.1 1.1-1.2 13-14.9 18.7-21.5 1.2-1.4 6.2-7.5 11.1-13.5 4.9-6.1 9.2-11.2 9.5-11.5.6-.6 1.5-1.8 18.6-24 11.2-14.5 15.9-20.9 29.3-39.9 9.2-13 25.1-37 25.1-37.8 0-.4-7.1-2.8-15.8-5.2-32.4-9-69.7-22.3-99.7-35.6-13.3-5.9-45.6-21.7-55.5-27.2-3-1.7-8.2-4.5-11.4-6.3-9.5-5.2-41.3-24.6-42.6-26-.3-.3-4.5-3.2-9.5-6.5-17.2-11.5-47.1-34.3-64-48.9-26.2-22.5-56.6-52.8-75.6-75.1-1.9-2.2-4-4.4-4.6-4.8-2-1.2-24.8-29.7-36-44.7-16.3-22-32.3-46.2-44.8-68-12.9-22.4-30.9-57.7-37.5-73.5-2.3-5.5-4.7-11.4-5.5-13-.7-1.7-3.6-8.7-6.4-15.6-21.6-54.3-37.2-115.1-45-174.9-2.6-19.6-3-22.9-3.6-31.5-.3-3.9-.8-9.3-1-12-2.4-24.5-2.4-89.5 0-111 .2-2.2.7-7.4 1-11.6.3-4.2.7-8.7 1-10 .2-1.3.6-5.1 1-8.4 1.1-10.4 4.5-33.5 7.1-47.4 1.3-7.4 2.4-13.6 2.4-13.8 0-.5-5.7-.1-12 .7zM888.2 89.9c-.5.3-2.4 5.1-4.2 10.6-7.7 24.3-15 57.7-17.6 81-.3 3.3-.8 6.8-1 7.8-1.9 10.2-2.6 68-1.1 86.7 1.3 16.1 3.1 29.8 6.3 47 .9 4.7 1.8 9.6 2 11 .7 3.6 2.2 9.5 4.4 17 1.1 3.6 4.2 14.4 7 24 10.5 36.8 25 69.2 47.8 106.5 35.9 58.8 88.6 111.9 147.7 148.7 41.8 26.1 87.1 45.3 133.6 56.7 18.9 4.7 41.1 8.9 48.9 9.3l5.4.3 4.4-12.5c15-43.6 32.8-108.5 40.6-148 .2-1.4 1.6-8.4 3-15.5 5.4-26.9 11.6-67 14.2-91 .2-2.2.6-5.8.9-8 .3-2.2.7-6.7 1-10 .3-3.3.7-7.6 1-9.5.2-1.9.7-7.6 1.1-12.5.3-5 .7-9.2.9-9.5.2-.3.6-7 1-15s.9-15.9 1.2-17.5c.2-1.7.7-25.8.9-53.6.4-41 .3-50.8-.8-51.6-1.8-1.5-10.6-6.4-30.8-17.3-13.7-7.4-54.7-27.8-67.5-33.7-16.7-7.6-21.9-9.8-36.5-16-80.7-34.1-170.5-61.1-251.5-75.8-7.2-1.3-38.3-6.6-41.5-7.1-1.9-.3-7.2-1.1-11.7-1.8-4.5-.7-8.6-1-9.1-.7z"/></svg>