<svg version="1.1" id="Ebene_1" xmlns="http://www.w3.org/2000/svg" x="0" y="0" viewBox="0 0 440 415.7" xml:space="preserve"><style>.st0{fill:#79563a}.st1{fill:#69a83f}.st3{fill:#7fbd55}.st4{fill:#76b54d}.st5{fill:#61a037}.st6{fill:#70ae46}.st7{fill:#6cab43}.st8{fill:#966c4a}.st9{fill:#593d28}.st10{fill:#81b051}.st12{fill:#76b44c}.st16{fill:#9cc86b}.st19{fill:#474218}.st21{fill:#b8855d}</style><path d="m357.1 285.1-2.4 3.6c-18.3 27.5-39.8 52.8-64.2 75.1-15.1 13.9-31.3 26.6-48.3 38-3.1 2.1-6.2 4.1-9.4 6.1-4.2 2.7-8.5 5.3-12.8 7.8-7.5-4.4-14.9-9-22.1-13.8-1-.6-1.9-1.3-2.8-1.9-27.6-18.8-52.8-41-75-66-2.4-2.7-4.7-5.4-7-8.1-9.9-11.8-19.2-24.2-27.7-37l-3-4.5c-7-10.8-13.5-22-19.4-33.5-12.1-23.4-21.9-47.9-29.2-73.2-.2-.5-.3-1-.5-1.6-3.4-11.9-6.2-24-8.5-36.3l-.2-1.1c-2.3-12.4-4-25-5.1-37.8-1-11.8-1.5-23.7-1.5-35.7v-1.3c0-4.1.1-8.2.2-12.3C61.1 26.9 108.1 10.3 157 2.7c7-1.1 14.1-2 21.2-2.7-1.7 8.5-3 17.2-3.8 25.9-.7 7.4-1 14.9-1 22.5 0 17.7 1.9 35.3 5.7 52.6 2.7 12.4 6.4 24.6 11.1 36.5.2.4.4.9.5 1.4l.3.9c5.1 12.6 11.2 24.8 18.3 36.4 15.9 25.9 36.5 48.7 60.7 67.1 11.9 9.1 24.6 17 38 23.7 15.6 7.6 32.1 13.8 49.1 18.1zM422 63.8v1.3c0 12.1-.5 24-1.6 35.8-1.1 12.8-2.8 25.4-5.1 37.8-3.8 20.9-9.4 41.6-16.5 61.6-18.9-2.4-37.1-8.3-53.8-17.4-3-1.6-5.9-3.4-8.8-5.2-.9-.6-1.8-1.1-2.6-1.7l-2.1-1.5c-8-5.5-15.4-11.8-22.2-18.8-.6-.6-1.1-1.2-1.7-1.8-4.1-4.3-7.9-8.9-11.5-13.7-.4-.6-.8-1.1-1.2-1.7-8.3-11.6-15-24.3-19.7-37.7L270 82.7v-.1c-1.3-6.2-2.3-12.5-2.8-18.8-.4-4.4-.6-8.9-.6-13.5 0-8.5.7-16.9 2.1-25.3.4-2.2.8-4.4 1.3-6.6 1.2-5.8 2.8-11.4 4.7-17C285.6 3 296.4 4.9 307 7.2c12.9 2.8 25.6 6.2 38 10.3 7.9 2.5 15.6 5.3 23.3 8.3 18.1 7.1 35.7 15.6 52.6 25.2.3.2.6.3.9.5.1 4.2.2 8.3.2 12.3z"/><path class="st0" d="M120.1 332.6v1.4c-2.4-2.7-4.7-5.4-7-8.1h.6c5.1-.2 6.5 1.8 6.4 6.7z"/><path class="st1" d="M157 25.8c-7.1 0-14.2-.1-21.3.1-5.2.1-10.5.6-15.7 1-10.2-.3-20.5-.6-30.7-1-4.8-.2-6.4 2-6.3 6.6.2 10.5 0 20.9 0 31.4H18c0-4.1.1-8.2.2-12.3C61.1 26.9 108.1 10.3 157 2.7v23.1z"/><path d="M421 63.8h-38l-38-.2c.3-12.6.7-25.2 1-37.7h22.2c18.1 7.1 35.7 15.6 52.6 25.2.1 4.2.2 8.5.2 12.7z" fill="#68a63e"/><path class="st3" d="M270 18.5v6.4l-1.3.2c.4-2.3.8-4.4 1.3-6.6z"/><path class="st4" d="M178.2 0c-1.7 8.5-3 17.2-3.8 25.9H157V2.8c7-1.2 14-2.1 21.2-2.8z"/><path class="st5" d="M345 17.5v7.3c-2.4.5-4.8.8-7.3 1-9.9.1-19.8 0-29.7.1l-.9-.1V7.2c12.8 2.9 25.5 6.3 37.9 10.3z"/><path class="st6" d="M368.2 25.8H346l-1-1v-7.3c7.8 2.5 15.6 5.3 23.2 8.3z"/><path class="st7" d="M307 25.8c-7.1 0-14.2.2-21.3 0-5.2-.1-10.5-.6-15.7-1v-6.3c1.2-5.8 2.8-11.4 4.7-17C285.6 3 296.4 4.9 307 7.2v18.6z"/><path class="st8" d="M157.1 294.9c-.2 23-.1 46-.1 68.9h-7.5c-10.3-9.4-20.1-19.4-29.4-29.9v-1.4c.1-4.8-1.3-6.9-6.4-6.8h-.7c-9.9-11.8-19.2-24.2-27.7-37H120c10.3 0 20.6.2 31-.1 4.5.1 6.1 1.7 6.1 6.3z"/><path class="st9" d="M195 400c-16-10.9-31.3-23-45.6-36.1h45.5l.1 36.1z"/><path class="st10" d="m45 63.9 38-.1c7.7-.3 15.4-.7 23.2-.9 4.6-.1 9.1 0 13.7 0 0 .3.1.6.1.9-.1 12.4-.1 24.7-.2 37.1L83 101H45.1L45 63.9z"/><path d="M45 100.9c-.1.3-.2.6-.3 1-1.9-.5-3.8-.8-5.8-1H19.5c-1-11.8-1.6-23.7-1.6-35.7v-1.3h27l.1 37z" fill="#89b959"/><path class="st5" d="M119.9 63.8c-.1-.3-.1-.6-.1-.9.1-12 .1-24 .2-36 5.2-.3 10.5-.8 15.7-1 7.1-.2 14.2-.1 21.3-.1v37.6l-37.1.4z"/><path class="st6" d="M120 26.8c-.1 12-.1 24-.2 36-4.6 0-9.1-.1-13.7 0-7.7.2-15.4.6-23.2.9 0-10.5.2-20.9 0-31.4-.1-4.6 1.5-6.8 6.3-6.6 10.3.6 20.5.8 30.8 1.1z"/><path class="st1" d="m345 24.8 1 1-1 37.7v.2l-36.9-.2-.1-37.6c9.9 0 19.8 0 29.7-.1 2.4-.2 4.9-.5 7.3-1z"/><path class="st5" d="M422 63.8h-1c0-4.2-.1-8.5-.1-12.7.3.2.6.3.9.5.1 4.1.2 8.2.2 12.2z"/><path class="st12" d="m345 63.6 37.9.3c-.1 12.4-.2 24.7-.2 37.1H381l-35-.1c-.5-2.1-.8-4.2-1-6.3v-31z"/><path class="st7" d="M422 63.8v1.3c0 12.1-.5 24-1.6 35.8h-.1c-.1 0-.1-.1-.2-.1h-.1V63.9l2-.1z"/><path class="st5" d="M420 63.8v36.9l-35.2.3-1.7-.3-.4.1c.1-12.4.2-24.7.2-37.1l37.1.1z"/><path class="st0" d="M195 363.8v.1zm196.8-225c-2-.1-3.9-.4-5.8-.9l-2.9-.2c-.2.2-.3.5-.2.8 0 .8 0 1.5.1 2.3v56.7c5.2 1.2 10.5 2.2 15.8 2.9 7.1-20.1 12.6-40.7 16.5-61.6h-23.5zM288.4 363.9h-12.9c-4.1 0-5.6-1.5-5.6-5.6.1-10.8 0-21.6 0-32.5h-37l-.4.4.3 33.3c.1 3.6-2.1 4.4-5.2 4.4h-32.8V400c.9.6 1.9 1.3 2.8 1.9l34.9-.1h9.4c17.1-11.4 33.2-24.1 48.3-38l-1.8.1z"/><path class="st4" d="m308.1 63.6-38 .2h-2.9c-.4-4.4-.6-8.9-.6-13.5 0-8.5.7-16.9 2.1-25.3l1.3-.2c5.2.3 10.5.8 15.7 1 7.1.1 14.2 0 21.3 0l.9.1c.1 12.6.2 25.1.2 37.7z"/><path class="st1" d="M159 100.8c.2-11.1.5-22.1.6-33.2 0-1.2-1.1-2.4-1.7-3.7l-.9-.6V25.7h17.4c-.7 7.4-1 14.9-1 22.5 0 17.7 1.9 35.3 5.7 52.6H159z"/><path class="st5" d="M270.1 63.8v18.8c-1.3-6.2-2.3-12.5-2.9-18.8h2.9z"/><path class="st8" d="M79 250.9H63c-12.1-23.4-21.9-47.9-29.2-73.2 1.4 0 2.9 0 4.3-.1 1.4 0 2.7-1 4-1.5l2.1.4c.2 10.5.8 20.9.6 31.4-.1 5 1.6 6.2 6.2 6 9.3-.3 18.6-.1 28 0-1.8 12.3-.8 24.7 0 37z"/><path class="st9" d="M80.5 164.7c-.2 3.7-.9 7.4-1.4 11.1l-6 .3c-9.6.2-19.2.3-28.8.4l-2.1-.4h-8.7c-3.4-11.9-6.2-24-8.5-36.3 14.6 0 29.2 0 43.8.1 2.6 0 5.5-.2 7.9.7 1.7.6 4.1 2.7 4.2 4.3.1 6.5-.1 13.2-.4 19.8z"/><path class="st0" d="M195 363.8h-38c0-23 0-46 .1-68.9 0-4.6-1.6-6.2-6.1-6.1-10.3.2-20.7.1-31 .1v-37l37.2-.8c2 .1 3.9.4 5.9.4l31.8.3c.1 8.1.2 16.2.2 24.3 0 12.8 0 12.7 12.5 12.8 8.4 0 16.9.1 25.3.2l.1 36.8-.4.4c-2.6-.1-5.3-.2-7.9-.2-7.8.1-15.6.5-23.3.3-5.2-.1-6.3.4-6.3 5.7-.1 10.5 0 21.1-.1 31.7z"/><path d="M120 251.9v-.1zm0 37H85.3l-3-4.5L82 252l38-.1v37z" fill="#888685"/><path d="M82.3 284.3c-7-10.8-13.4-22-19.3-33.5h16l3 .2v.8c.1 10.9.2 21.7.3 32.5z" fill="#79553a"/><path class="st9" d="M209.3 175.9h-44.6c-2.5 0-5 .4-7.4.6-7.5-.2-14.9-.3-22.4-.5-5.1-.2-10.2-.5-15.3-.7.1-11.8.1-23.7.2-35.5l-.7-1 .2-.2c.1-12.6.3-25.2.5-37.7.1-12.4.1-24.7.2-37.1l37.1-.3.9.6c-.1 23.3-.2 46.5-.1 69.8 0 1.7.8 3.4 1.3 5.1 10.7.2 21.3.4 31.9.6 4.9 12.6 11 24.7 18.2 36.3z"/><path class="st1" d="M119.7 100.9c-.2 12.6-.3 25.2-.5 37.8l-37.2.1-31-.4c2.2-.5 4.3-1.4 6.5-1.5 9.2-.4 18.5-.7 26.7-.9-.8-5.2-2.1-9.7-2.1-14.1-.1-7 .5-13.9.8-20.9l36.8-.1z"/><path d="M83 101c-.3 7-1 13.9-.8 20.9.1 4.5 1.3 8.9 2.1 14.1-8.2.3-17.5.5-26.7.9-2.2.1-4.3 1-6.5 1.5H45l-.1-36.6.3-1 37.8.2z" fill="#65a33b"/><path class="st16" d="m44.9 138.4-20.2.2c-2.3-12.4-4-25-5.1-37.8H39c2 .2 3.9.5 5.8 1 0 12.3 0 24.5.1 36.6z"/><path d="M346 100.9c-.3 11.3-.7 22.7-1 34-.3 1.2-.6 2.5-1 3.7l-1 .2h-35.1l-7.2-.4c-.2-.3-.4-.5-.7-.7.8-.6 1.5-1.7 2.3-1.7 5.7.2 5.8-3.5 5.7-7.6-.1-7.2-.2-14.3 0-21.4.2-4.9-1.8-6.4-6.5-6.3l-3.8.1c-5 .1-10.1 0-15.1 0l-7.5-.1-5.1-18.1V63.7l38-.2 36.9.2c0 10.3 0 20.5.1 30.8.1 2.2.5 4.3 1 6.4z" fill="#91c060"/><path d="m345 134.9 1-34 35 .1c0 2.8-.1 5.6-.1 8.4 0 7 .1 14-.1 20.9-.1 2.7-.3 6.4-4.2 6.3-10.5-.2-21.2 2-31.6-1.7z" fill="#96c566"/><path class="st16" d="M345 134.9c10.3 3.8 21 1.5 31.6 1.8 3.9.1 4.1-3.6 4.2-6.3.2-7 .1-14 .1-20.9 0-2.8.1-5.6.1-8.4h1.7l.4-.1c0 12.3 0 24.6-.1 36.8-.2.2-.3.5-.2.8l-37.7.5-1.1-.3 1-3.9z"/><path class="st9" d="M420.4 101c-1.1 12.8-2.8 25.4-5.1 37.8h-23.5c-2-.1-3.9-.4-5.8-.9-.3-2.8-.9-5.6-.9-8.4-.1-9.5-.1-18.9-.1-28.4l35.2-.3h.1c.1 0 .1.1.2.1l-.1.1z"/><path class="st19" d="M384.9 101.2c0 9.5 0 18.9.1 28.4.2 2.8.5 5.6.9 8.4l-2.9-.2c0-12.3 0-24.6.1-36.8l1.8.2z"/><path class="st9" d="M270 243v8.3c-10.6 0-21.2 0-31.9.1-14.4.1-28.9.2-43.3.3-10.6-.1-21.2-.1-31.8-.3-2 0-3.9-.3-5.9-.4.1-12.3.1-24.7.2-37 2.1-.1 4.3-.3 6.5-.3h62.4c1.2 0 2.3 0 3.5-.2l.3-.1c.4-.1.7-.2 1.1-.3.1 0 .1-.1.2-.1l.1-.1.2-.1c.1 0 .1-.1.2-.2s.2-.2.3-.4c.3-.5.5-1 .6-1.5 0-.1 0-.2.1-.3 0-.2.1-.5.1-.7 0-.5.1-1.1.1-1.7 11 13 23.4 24.7 37 35zm75.1-60.5v.4c-3-1.6-5.9-3.4-8.8-5.2 1.7-.1 3.3-.4 5-.6l1.8-.3 1.1-.1c0 .2.1.5.1.7.5 1.7.7 3.4.8 5.1z"/><path d="M270 325.8zm84.7-37c-18.3 27.5-39.8 52.8-64.2 75.1h-15c-4.1 0-5.6-1.5-5.6-5.6.1-10.8 0-21.6 0-32.5 11.3.3 22.6.5 33.8.8 3 .1 4.1-1.4 4.1-4.3-.2-11.1-.2-22.3-.3-33.4l.5-.1h46.7z" fill="#966b4a"/><path class="st21" d="m357.1 285.1-2.4 3.6h-46.5c0-3.4 0-6.8-.1-10.2v-.8c0-3.7 0-7.4-.1-11 15.7 7.9 32.1 14.1 49.1 18.4z"/><path class="st8" d="M232.8 408c-4.2 2.7-8.5 5.3-12.8 7.8-7.5-4.4-14.9-9-22.1-13.8l34.9-.1v6.1z"/><path class="st9" d="M195 363.9V332c0-5.2 1.1-5.8 6.3-5.7 7.8.2 15.6-.2 23.3-.3 2.6 0 5.3.1 7.9.2l.3 33.3c0 3.6-2.1 4.4-5.2 4.4-10.8-.1-21.7 0-32.6 0z"/><path d="M383 197v.5c-13.2-3.1-26-8-37.9-14.6v-.4c-.1-1.7-.3-3.4-.7-5.1l-.1-.7c-.1-.2-.2-.4-.2-.7.2-.1.5-.2.8-.2l3.1-.1 35 .1V197z" fill="#6d6b6b"/><path class="st9" d="M242.2 401.9c-3.1 2.1-6.2 4.1-9.4 6.1v-6.1h9.4z"/><path class="st8" d="M233 325.9c0-12.3 0-24.6-.1-36.8l37-.2.6.1-.5 36.9h-37z"/><path class="st9" d="m383 176-35-.1c-.3-10.1-.8-20.2-.7-30.4 0-1.9 2.4-5.2 3.8-5.3 10.6-.2 21.2.3 31.8.6l.1 35.2z"/><path class="st19" d="M382.9 140.8c-10.6-.3-21.2-.7-31.8-.6-1.4 0-3.8 3.4-3.8 5.3-.1 10.1.4 20.2.7 30.4l-3.1.1.3-36.9 37.7-.5c-.1.6 0 1.4 0 2.2z"/><path class="st6" d="m190.1 137.3-2.1 1.1-16.2.1c-.2-.1-.5-.1-.7 0l-9.2-.1c-1-3.6-2.7-7.1-2.8-10.7-.4-8.9-.1-17.9-.1-26.9h20c2.8 12.5 6.4 24.7 11.1 36.5z"/><path class="st10" d="M159 100.8c0 9-.3 17.9.1 26.9.2 3.6 1.8 7.1 2.8 10.7l-2.9.5c-.4-1.7-1.3-3.4-1.3-5.1 0-23.3.1-46.5.1-69.8.6 1.2 1.7 2.4 1.7 3.7 0 11-.3 22.1-.5 33.1z"/><path class="st21" d="M44.2 176.5c9.6-.1 19.2-.3 28.8-.4 2 0 4-.2 6-.3h3l.6 3.9-.1 34.1-.5-.1-2.9.1c-9.3 0-18.6-.3-27.9 0-4.7.1-6.3-1-6.2-6 0-10.4-.5-20.8-.8-31.3z"/><path class="st8" d="m79 213.9 2.9-.1c0 12.4 0 24.9.1 37.3l-3-.2c-.8-12.3-1.8-24.7 0-37z"/><path class="st0" d="M42.1 176.1c-1.3.5-2.7 1.5-4 1.5-1.3 0-2.9 0-4.3.1-.2-.5-.3-1-.5-1.6h8.8z"/><path class="st19" d="m82.1 138.7-.1 37.1h-3c.5-3.7 1.2-7.4 1.4-11.1.3-6.6.6-13.3.2-19.9-.1-1.6-2.4-3.6-4.2-4.3-2.4-.9-5.2-.7-7.9-.7-14.6 0-29.2-.1-43.8-.1l-.2-1.1 20.2-.2H51l31.1.3z"/><path class="st8" d="M157.4 214.1c-.1 12.3-.2 24.6-.2 36.9l-37.2.8c-.1-12.7-.1-25.4-.2-38.2v-35.9l-.7-2c.1-.2.2-.4.4-.6 5.1.2 10.2.6 15.3.7 7.5.2 14.9.4 22.4.5.1 12.8.1 25.3.2 37.8z"/><path class="st21" d="m269.9 288.8-37 .2c-8.4-.1-16.9-.2-25.3-.2-12.5 0-12.5 0-12.5-12.8 0-8.1-.1-16.2-.2-24.3 14.4-.1 28.9-.2 43.3-.3 10.6-.1 21.2-.1 31.9-.1l-.2 37.5z"/><path class="st0" d="M119.8 213.7c.1 12.7.1 25.4.2 38.2l-38 .1v-.9c0-12.4 0-24.9-.1-37.3l.5.1 37.4-.2zm113.1-5.5c0 .6 0 1.2-.1 1.7 0 .2 0 .5-.1.7 0 .1 0 .2-.1.3-.1.5-.3 1-.6 1.5-.1.1-.2.3-.3.4l-.2.2-.2.1-.1.1c-.1 0-.1.1-.2.1-.3.1-.7.3-1.1.3l-.3.1c-1.1.1-2.3.2-3.5.2h-62.4c-2.2 0-4.3.2-6.5.3 0-12.5-.1-25.1-.1-37.6 2.5-.2 5-.6 7.4-.6h44.6c7.2 11.3 15.1 22.1 23.8 32.2z"/><path class="st6" d="M119.5 175.3c-.2.2-.3.4-.4.6H81.9c0-12.4 0-24.7.1-37.1l37.2-.1-.2.2.7 1-.2 35.4z"/><path class="st19" d="M191 139.5c-10.7-.2-21.3-.4-31.9-.6l2.9-.5 9.2.1.4.1.4-.1 16.2-.1 2.6.2c-.1.4 0 .7.2.9z"/><path class="st10" d="m190.6 138.7-2.6-.2 2.1-1.1c.2.4.3.8.5 1.3z"/><path class="st1" d="m119.7 139.8-.7-1 .7 1z"/><path class="st3" d="M308 107.1c-.3 7.1-.2 14.3 0 21.4.1 4.2-.1 7.8-5.7 7.6-.7 0-1.5 1.1-2.3 1.7v.7h-5c-8.3-11.6-15-24.3-19.7-37.7l7.5.1h15.1l3.8-.1c4.5-.1 6.5 1.4 6.3 6.3z"/><path class="st7" d="M342.8 169.6c-.1 1.7-2.2 4.8-3.4 4.9-2.6.1-5.2.1-7.8.1-8-5.5-15.4-11.8-22.2-18.8.1-2.8.2-5.6.3-8.5s.2-5.6.3-8.5h33c0 1.7.1 3.3.1 5 0 8.6.1 17.2-.3 25.8z"/><path class="st10" d="M307.9 138.9h2c-.1 2.8-.2 5.7-.3 8.5-.1 2.8-.2 5.6-.3 8.5-.6-.6-1.1-1.2-1.7-1.8v-5.2c.2-3.4.2-6.7.3-10zm37.2.1-.3 36.9c-.3 0-.5.1-.8.2h-10.4l-2.1-1.5c2.6 0 5.2 0 7.8-.1 1.2 0 3.4-3.1 3.4-4.9.4-8.6.2-17.2.3-25.8 0-1.7 0-3.3-.1-5l1-.2 1.2.4z"/><path class="st19" d="M307.9 138.9c-.1 3.3-.1 6.6-.2 9.9-.5-.8-1.5-1.7-1.5-2.5.2-4.5-2.4-5.9-6.2-6l-3.8-.1c-.4-.6-.8-1.1-1.2-1.7h5l.4.1.4-.1 7.1.4z"/><path class="st12" d="m300.8 138.5-.4.1-.4-.1v-.7c.3.2.6.5.8.7z"/><path class="st0" d="m308.2 288.8-.5.1h-37.2l-.6-.1c0-12.5.1-25 .1-37.5V243c11.9 9.1 24.6 17 38 23.7 0 3.7.1 7.4.1 11v.8c0 3.5 0 6.9.1 10.3z"/><path class="st9" d="M306.2 146.3c.2-4.5-2.4-5.9-6.2-6l-3.8-.1c3.5 4.8 7.4 9.4 11.5 13.7v-5.2c-.5-.7-1.5-1.6-1.5-2.4z"/><path class="st19" d="m344.3 176.7-1.1.1-1.8.3c-1.6.2-3.3.5-5 .6-.9-.6-1.8-1.1-2.6-1.7h10.4c-.1.3 0 .5.1.7z"/><path class="st9" d="M270.5 289h37.2c.1 11.1.1 22.3.3 33.4 0 2.9-1.1 4.4-4.1 4.3-11.3-.3-22.6-.5-33.9-.8l.5-36.9z"/><path class="st10" d="m171.8 138.5-.4.1h-.4c.4-.1.6-.2.8-.1z"/><path class="st9" d="m119.8 213.7-37.4.2c0-11.4.1-22.8.1-34.1 3-.6 6-1.7 9.1-1.8 9.4-.2 18.8-.1 28.2-.1v35.8z"/><path class="st19" d="M119.8 177.8c-9.4 0-18.8-.1-28.2.1-3 .1-6 1.2-9.1 1.8l-.6-3.9h37.2l.7 2z"/></svg>
