<svg xmlns="http://www.w3.org/2000/svg" xmlns:xlink="http://www.w3.org/1999/xlink" viewBox="0 0 229.87 259.76"><defs><style>.cls-1{fill:url(#Unbenannter_Verlauf_10);}.cls-2{fill:url(#Unbenannter_Verlauf_10-2);}.cls-3{fill:url(#Unbenannter_Verlauf_10-3);}.cls-4{fill:#fff;}</style><linearGradient id="Unbenannter_Verlauf_10" x1="47.76" y1="148.04" x2="183.71" y2="148.04" gradientUnits="userSpaceOnUse"><stop offset="0" stop-color="#2f8adf"/><stop offset="1" stop-color="#0de3f2"/></linearGradient><linearGradient id="Unbenannter_Verlauf_10-2" x1="47.79" y1="94.82" x2="183.69" y2="94.82" xlink:href="#Unbenannter_Verlauf_10"/><linearGradient id="Unbenannter_Verlauf_10-3" x1="47.76" y1="182.38" x2="183.71" y2="182.38" xlink:href="#Unbenannter_Verlauf_10"/></defs><title>Element 18</title><g id="Ebene_2" data-name="Ebene 2"><g id="Ebene_1-2" data-name="Ebene 1"><path class="cls-1" d="M112.14,172.69,51,135.09a6.88,6.88,0,0,1-2.25-9.45h0a6.87,6.87,0,0,1,9.45-2.25l53.91,33.17a6.86,6.86,0,0,0,7.2,0l53.91-33.17a6.85,6.85,0,0,1,9.44,2.25h0a6.87,6.87,0,0,1-2.25,9.45l-61.1,37.6A6.86,6.86,0,0,1,112.14,172.69Z"/><path class="cls-2" d="M183.69,94.82a7.89,7.89,0,0,0-.05-.84l0-.2a6.77,6.77,0,0,0-3.17-4.89l-61.1-37.61a6.91,6.91,0,0,0-7.2,0L51,88.89a6.83,6.83,0,0,0-3.17,4.89c0,.07,0,.13,0,.2a7.08,7.08,0,0,0,0,1.68c0,.07,0,.13,0,.2A6.83,6.83,0,0,0,51,100.75l61.11,37.6a6.86,6.86,0,0,0,7.2,0l61.1-37.6a6.77,6.77,0,0,0,3.17-4.89l0-.2A7.89,7.89,0,0,0,183.69,94.82Zm-71.55,27.41L67.6,94.82l44.54-27.41a6.86,6.86,0,0,1,7.2,0l44.54,27.41-44.54,27.41A6.86,6.86,0,0,1,112.14,122.23Z"/><path class="cls-3" d="M112.14,207,51,169.42A6.87,6.87,0,0,1,48.78,160h0a6.86,6.86,0,0,1,9.45-2.25l53.91,33.17a6.86,6.86,0,0,0,7.2,0l53.91-33.17a6.85,6.85,0,0,1,9.44,2.25h0a6.86,6.86,0,0,1-2.25,9.44L119.34,207A6.91,6.91,0,0,1,112.14,207Z"/><path class="cls-4" d="M114.94,259.76a18.25,18.25,0,0,1-9.14-2.44L9.13,201.51A18.31,18.31,0,0,1,0,185.69V74.07A18.33,18.33,0,0,1,9.13,58.25L105.8,2.44a18.34,18.34,0,0,1,18.27,0l96.67,55.81a18.33,18.33,0,0,1,9.13,15.82V185.69a18.31,18.31,0,0,1-9.13,15.82l-96.67,55.81A18.24,18.24,0,0,1,114.94,259.76ZM114.93,7a11.31,11.31,0,0,0-5.63,1.5L12.63,64.31A11.32,11.32,0,0,0,7,74.07V185.69a11.3,11.3,0,0,0,5.63,9.76l96.67,55.81a11.29,11.29,0,0,0,11.27,0l96.67-55.81a11.3,11.3,0,0,0,5.63-9.76V74.07a11.32,11.32,0,0,0-5.63-9.76L120.57,8.5A11.32,11.32,0,0,0,114.93,7Z"/></g></g></svg>