<?xml version="1.0" encoding="utf-8"?>
<!-- Generator: Adobe Illustrator 21.1.0, SVG Export Plug-In . SVG Version: 6.00 Build 0)  -->
<svg version="1.1" id="Ebene_1" xmlns="http://www.w3.org/2000/svg" xmlns:xlink="http://www.w3.org/1999/xlink" x="0px" y="0px"
	 viewBox="0 0 440 415.7" style="enable-background:new 0 0 440 415.7;" xml:space="preserve">
<style type="text/css">
	.st0{fill:#79563A;}
	.st1{fill:#69A83F;}
	.st2{fill:#68A63E;}
	.st3{fill:#7FBD55;}
	.st4{fill:#76B54D;}
	.st5{fill:#61A037;}
	.st6{fill:#70AE46;}
	.st7{fill:#6CAB43;}
	.st8{fill:#966C4A;}
	.st9{fill:#593D28;}
	.st10{fill:#81B051;}
	.st11{fill:#89B959;}
	.st12{fill:#76B44C;}
	.st13{fill:#888685;}
	.st14{fill:#79553A;}
	.st15{fill:#65A33B;}
	.st16{fill:#9CC86B;}
	.st17{fill:#91C060;}
	.st18{fill:#96C566;}
	.st19{fill:#474218;}
	.st20{fill:#966B4A;}
	.st21{fill:#B8855D;}
	.st22{fill:#6D6B6B;}
</style>
<title>MC-AUTH</title>
<g>
	<path d="M357.1,285.1c-0.8,1.2-1.6,2.4-2.4,3.6c-18.3,27.5-39.8,52.8-64.2,75.1l0,0c-15.1,13.9-31.3,26.6-48.3,38
		c-3.1,2.1-6.2,4.1-9.4,6.1c-4.2,2.7-8.5,5.3-12.8,7.8c-7.5-4.4-14.9-9-22.1-13.8l0,0c-1-0.6-1.9-1.3-2.8-1.9
		c-27.6-18.8-52.8-41-75-66c-2.4-2.7-4.7-5.4-7-8.1c-9.9-11.8-19.2-24.2-27.7-37c-1-1.5-2-3-3-4.5c-7-10.8-13.5-22-19.4-33.5
		c-12.1-23.4-21.9-47.9-29.2-73.2c-0.2-0.5-0.3-1-0.5-1.6c-3.4-11.9-6.2-24-8.5-36.3l-0.2-1.1c-2.3-12.4-4-25-5.1-37.8
		C18.5,89.1,18,77.2,18,65.2v-1.3c0-4.1,0.1-8.2,0.2-12.3C61.1,26.9,108.1,10.3,157,2.7c7-1.1,14.1-2,21.2-2.7
		c-1.7,8.5-3,17.2-3.8,25.9c-0.7,7.4-1,14.9-1,22.5c0,17.7,1.9,35.3,5.7,52.6c2.7,12.4,6.4,24.6,11.1,36.5c0.2,0.4,0.4,0.9,0.5,1.4
		c0.1,0.3,0.2,0.6,0.3,0.9c5.1,12.6,11.2,24.8,18.3,36.4c15.9,25.9,36.5,48.7,60.7,67.1c11.9,9.1,24.6,17,38,23.7
		C323.6,274.6,340.1,280.8,357.1,285.1z"/>
	<path d="M422,63.8v1.3c0,12.1-0.5,24-1.6,35.8c-1.1,12.8-2.8,25.4-5.1,37.8c-3.8,20.9-9.4,41.6-16.5,61.6
		c-18.9-2.4-37.1-8.3-53.8-17.4c-3-1.6-5.9-3.4-8.8-5.2c-0.9-0.6-1.8-1.1-2.6-1.7c-0.7-0.5-1.4-1-2.1-1.5
		c-8-5.5-15.4-11.8-22.2-18.8c-0.6-0.6-1.1-1.2-1.7-1.8l0,0c-4.1-4.3-7.9-8.9-11.5-13.7c-0.4-0.6-0.8-1.1-1.2-1.7
		c-8.3-11.6-15-24.3-19.7-37.7l-5.2-18.1v-0.1c-1.3-6.2-2.3-12.5-2.8-18.8c-0.4-4.4-0.6-8.9-0.6-13.5c0-8.5,0.7-16.9,2.1-25.3
		c0.4-2.2,0.8-4.4,1.3-6.6l0,0c1.2-5.8,2.8-11.4,4.7-17C285.6,3,296.4,4.9,307,7.2c12.9,2.8,25.6,6.2,38,10.3
		c7.9,2.5,15.6,5.3,23.3,8.3c18.1,7.1,35.7,15.6,52.6,25.2c0.3,0.2,0.6,0.3,0.9,0.5C421.9,55.7,422,59.8,422,63.8z"/>
	<path class="st0" d="M120.1,332.6v1.4c-2.4-2.7-4.7-5.4-7-8.1h0.6C118.8,325.7,120.2,327.7,120.1,332.6z"/>
	<path class="st1" d="M157,25.8c-7.1,0-14.2-0.1-21.3,0.1c-5.2,0.1-10.5,0.6-15.7,1c-10.2-0.3-20.5-0.6-30.7-1
		c-4.8-0.2-6.4,2-6.3,6.6c0.2,10.5,0,20.9,0,31.4L45,63.9H18c0-4.1,0.1-8.2,0.2-12.3C61.1,26.9,108.1,10.3,157,2.7
		C157,10.4,157,18.1,157,25.8z"/>
	<path class="st2" d="M421,63.8h-38l-38-0.2c0.3-12.6,0.7-25.2,1-37.7h22.2c18.1,7.1,35.7,15.6,52.6,25.2
		C420.9,55.3,421,59.6,421,63.8z"/>
	<path class="st3" d="M270,18.5v6.4l-1.3,0.2C269.1,22.8,269.5,20.7,270,18.5z"/>
	<path class="st4" d="M178.2,0c-1.7,8.5-3,17.2-3.8,25.9H157c0-7.7,0-15.4,0-23.1C164,1.6,171,0.7,178.2,0z"/>
	<path class="st5" d="M345,17.5v7.3c-2.4,0.5-4.8,0.8-7.3,1c-9.9,0.1-19.8,0-29.7,0.1l-0.9-0.1c0-6.2,0-12.4,0-18.6
		C319.9,10.1,332.6,13.5,345,17.5z"/>
	<path class="st6" d="M368.2,25.8H346c-0.3-0.3-0.7-0.7-1-1v-7.3C352.8,20,360.6,22.8,368.2,25.8z"/>
	<path class="st7" d="M307,25.8c-7.1,0-14.2,0.2-21.3,0c-5.2-0.1-10.5-0.6-15.7-1v-6.3c1.2-5.8,2.8-11.4,4.7-17
		C285.6,3,296.4,4.9,307,7.2C307,13.4,307,19.6,307,25.8z"/>
	<path class="st8" d="M157.1,294.9c-0.2,23-0.1,46-0.1,68.9h-7.5c-10.3-9.4-20.1-19.4-29.4-29.9v-1.4c0.1-4.8-1.3-6.9-6.4-6.8H113
		c-9.9-11.8-19.2-24.2-27.7-37H120c10.3,0,20.6,0.2,31-0.1C155.5,288.7,157.1,290.3,157.1,294.9z"/>
	<path class="st9" d="M195,400c-16-10.9-31.3-23-45.6-36.1h7.5h38l0,0L195,400z"/>
	<path class="st10" d="M45,63.9l38-0.1c7.7-0.3,15.4-0.7,23.2-0.9c4.6-0.1,9.1,0,13.7,0c0,0.3,0.1,0.6,0.1,0.9
		c-0.1,12.4-0.1,24.7-0.2,37.1L83,101H45.1L45,63.9z"/>
	<path class="st11" d="M45,100.9c-0.1,0.3-0.2,0.6-0.3,1c-1.9-0.5-3.8-0.8-5.8-1c-6.5,0-13,0-19.4,0c-1-11.8-1.6-23.7-1.6-35.7v-1.3
		h27L45,100.9z"/>
	<path class="st5" d="M119.9,63.8c-0.1-0.3-0.1-0.6-0.1-0.9c0.1-12,0.1-24,0.2-36c5.2-0.3,10.5-0.8,15.7-1
		c7.1-0.2,14.2-0.1,21.3-0.1l0,0c0,12.5,0,25,0,37.6L119.9,63.8z"/>
	<path class="st6" d="M120,26.8c-0.1,12-0.1,24-0.2,36c-4.6,0-9.1-0.1-13.7,0c-7.7,0.2-15.4,0.6-23.2,0.9c0-10.5,0.2-20.9,0-31.4
		c-0.1-4.6,1.5-6.8,6.3-6.6C99.5,26.3,109.7,26.5,120,26.8z"/>
	<path class="st1" d="M345,24.8l1,1l-1,37.7v0.2l-36.9-0.2L308,25.9c9.9,0,19.8,0,29.7-0.1C340.1,25.6,342.6,25.3,345,24.8z"/>
	<path class="st5" d="M422,63.8h-1c0-4.2-0.1-8.5-0.1-12.7c0.3,0.2,0.6,0.3,0.9,0.5C421.9,55.7,422,59.8,422,63.8z"/>
	<path class="st12" d="M345,63.6l37.9,0.3c-0.1,12.4-0.2,24.7-0.2,37.1H381l-35-0.1c-0.5-2.1-0.8-4.2-1-6.3c0-10.2,0-20.5,0-30.8
		V63.6z"/>
	<path class="st7" d="M422,63.8v1.3c0,12.1-0.5,24-1.6,35.8h-0.1c-0.1,0-0.1-0.1-0.2-0.1H420l0,0c0-4.4,0-8.9,0-13.3
		c0-7.9,0-15.7,0-23.6L422,63.8L422,63.8z"/>
	<path class="st5" d="M420,63.8c0,7.9,0,15.7,0,23.6c0,4.4,0,8.9,0,13.3l-35.2,0.3l-1.7-0.3l-0.4,0.1c0.1-12.4,0.2-24.7,0.2-37.1
		L420,63.8z"/>
	<polygon class="st0" points="195,363.8 195,363.9 195,363.9 	"/>
	<path class="st0" d="M391.8,138.8c-2-0.1-3.9-0.4-5.8-0.9l-2.9-0.2c-0.2,0.2-0.3,0.5-0.2,0.8c0,0.8,0,1.5,0.1,2.3
		c0,11.8,0,23.5,0,35.2c0,3.6,0,7.2,0,10.8c0,3.4,0,6.8,0,10.2v0.5c5.2,1.2,10.5,2.2,15.8,2.9c7.1-20.1,12.6-40.7,16.5-61.6
		C407.5,138.8,399.6,138.8,391.8,138.8z M288.4,363.9l-12.9,0c-4.1,0-5.6-1.5-5.6-5.6c0.1-10.8,0-21.6,0-32.5l0,0l0,0h-37l-0.4,0.4
		c0.1,11.1,0.2,22.2,0.3,33.3c0.1,3.6-2.1,4.4-5.2,4.4c-10.9,0-21.8,0-32.8,0V400c0.9,0.6,1.9,1.3,2.8,1.9l0,0l34.9-0.1h9.4
		c17.1-11.4,33.2-24.1,48.3-38L288.4,363.9z"/>
	<path class="st4" d="M308.1,63.6l-38,0.2h-2.9c-0.4-4.4-0.6-8.9-0.6-13.5c0-8.5,0.7-16.9,2.1-25.3l1.3-0.2c5.2,0.3,10.5,0.8,15.7,1
		c7.1,0.1,14.2,0,21.3,0l0.9,0.1C308,38.5,308.1,51,308.1,63.6z"/>
	<path class="st1" d="M159,100.8c0.2-11.1,0.5-22.1,0.6-33.2c0-1.2-1.1-2.4-1.7-3.7l-0.9-0.6c0-12.5,0-25,0-37.6h17.4
		c-0.7,7.4-1,14.9-1,22.5c0,17.7,1.9,35.3,5.7,52.6L159,100.8z"/>
	<path class="st5" d="M270.1,63.8c0,6.3,0,12.5,0,18.8c-1.3-6.2-2.3-12.5-2.9-18.8L270.1,63.8z"/>
	<path class="st8" d="M79,250.9H63c-12.1-23.4-21.9-47.9-29.2-73.2c1.4,0,2.9,0,4.3-0.1c1.4,0,2.7-1,4-1.5l2.1,0.4
		c0.2,10.5,0.8,20.9,0.6,31.4c-0.1,5,1.6,6.2,6.2,6c9.3-0.3,18.6-0.1,28,0C77.2,226.2,78.2,238.6,79,250.9z"/>
	<path class="st9" d="M80.5,164.7c-0.2,3.7-0.9,7.4-1.4,11.1c-2,0.1-4,0.2-6,0.3c-9.6,0.2-19.2,0.3-28.8,0.4l-2.1-0.4h-8.7
		c-3.4-11.9-6.2-24-8.5-36.3c14.6,0,29.2,0,43.8,0.1c2.6,0,5.5-0.2,7.9,0.7c1.7,0.6,4.1,2.7,4.2,4.3C81,151.4,80.8,158.1,80.5,164.7
		z"/>
	<path class="st0" d="M195,363.8h-38c0-23,0-46,0.1-68.9c0-4.6-1.6-6.2-6.1-6.1c-10.3,0.2-20.7,0.1-31,0.1c0-12.3,0-24.7,0-37
		l37.2-0.8c2,0.1,3.9,0.4,5.9,0.4c10.6,0.1,21.2,0.2,31.8,0.3c0.1,8.1,0.2,16.2,0.2,24.3c0,12.8,0,12.7,12.5,12.8
		c8.4,0,16.9,0.1,25.3,0.2l0.1,36.8l-0.4,0.4c-2.6-0.1-5.3-0.2-7.9-0.2c-7.8,0.1-15.6,0.5-23.3,0.3c-5.2-0.1-6.3,0.4-6.3,5.7
		C195,342.6,195.1,353.2,195,363.8L195,363.8z"/>
	<polygon class="st13" points="120,251.9 120,251.9 120,251.8 	"/>
	<path class="st13" d="M120,288.9H85.3c-1-1.5-2-3-3-4.5c-0.1-10.8-0.2-21.6-0.3-32.4l38-0.1C120,264.2,120,276.5,120,288.9z"/>
	<path class="st14" d="M82.3,284.3c-7-10.8-13.4-22-19.3-33.5h16l3,0.2l0,0c0,0.3,0,0.6,0,0.8C82.1,262.7,82.2,273.5,82.3,284.3z"/>
	<path class="st9" d="M209.3,175.9c-14.9,0-29.7,0-44.6,0c-2.5,0-5,0.4-7.4,0.6c-7.5-0.2-14.9-0.3-22.4-0.5
		c-5.1-0.2-10.2-0.5-15.3-0.7c0.1-11.8,0.1-23.7,0.2-35.5l-0.7-1l0.2-0.2l0,0c0.1-12.6,0.3-25.2,0.5-37.7
		c0.1-12.4,0.1-24.7,0.2-37.1l37.1-0.3l0.9,0.6c-0.1,23.3-0.2,46.5-0.1,69.8c0,1.7,0.8,3.4,1.3,5.1c10.7,0.2,21.3,0.4,31.9,0.6
		C196,152.2,202.1,164.3,209.3,175.9z"/>
	<path class="st1" d="M119.7,100.9c-0.2,12.6-0.3,25.2-0.5,37.8l-37.2,0.1L51,138.4c2.2-0.5,4.3-1.4,6.5-1.5
		c9.2-0.4,18.5-0.7,26.7-0.9c-0.8-5.2-2.1-9.7-2.1-14.1c-0.1-7,0.5-13.9,0.8-20.9L119.7,100.9z"/>
	<path class="st15" d="M83,101c-0.3,7-1,13.9-0.8,20.9c0.1,4.5,1.3,8.9,2.1,14.1c-8.2,0.3-17.5,0.5-26.7,0.9c-2.2,0.1-4.3,1-6.5,1.5
		h-6.1l-0.1-36.6l0.3-1L83,101z"/>
	<path class="st16" d="M44.9,138.4l-20.2,0.2c-2.3-12.4-4-25-5.1-37.8c6.5,0,13,0,19.4,0c2,0.2,3.9,0.5,5.8,1
		C44.8,114.1,44.8,126.3,44.9,138.4z"/>
	<path class="st17" d="M346,100.9c-0.3,11.3-0.7,22.7-1,34c-0.3,1.2-0.6,2.5-1,3.7l0,0l-1,0.2h-33.1h-2l-7.2-0.4
		c-0.2-0.3-0.4-0.5-0.7-0.7c0.8-0.6,1.5-1.7,2.3-1.7c5.7,0.2,5.8-3.5,5.7-7.6c-0.1-7.2-0.2-14.3,0-21.4c0.2-4.9-1.8-6.4-6.5-6.3
		l-3.8,0.1c-5,0.1-10.1,0-15.1,0l-7.5-0.1L270,82.6v-0.1c0-6.3,0-12.5,0-18.8l38-0.2l36.9,0.2c0,10.3,0,20.5,0.1,30.8
		C345.1,96.7,345.5,98.8,346,100.9z"/>
	<path class="st18" d="M345,134.9l1-34l35,0.1c0,2.8-0.1,5.6-0.1,8.4c0,7,0.1,14-0.1,20.9c-0.1,2.7-0.3,6.4-4.2,6.3
		C366.1,136.4,355.4,138.6,345,134.9z"/>
	<path class="st16" d="M345,134.9c10.3,3.8,21,1.5,31.6,1.8c3.9,0.1,4.1-3.6,4.2-6.3c0.2-7,0.1-14,0.1-20.9c0-2.8,0.1-5.6,0.1-8.4
		h1.7l0.4-0.1c0,12.3,0,24.6-0.1,36.8c-0.2,0.2-0.3,0.5-0.2,0.8l-37.7,0.5l-1.1-0.3L345,134.9z"/>
	<path class="st9" d="M420.4,101c-1.1,12.8-2.8,25.4-5.1,37.8c-7.9,0-15.7,0-23.5,0c-2-0.1-3.9-0.4-5.8-0.9
		c-0.3-2.8-0.9-5.6-0.9-8.4c-0.1-9.5-0.1-18.9-0.1-28.4l35.2-0.3h0.1c0.1,0,0.1,0.1,0.2,0.1L420.4,101z"/>
	<path class="st19" d="M384.9,101.2c0,9.5,0,18.9,0.1,28.4c0.2,2.8,0.5,5.6,0.9,8.4l-2.9-0.2c0-12.3,0-24.6,0.1-36.8L384.9,101.2z"
		/>
	<path class="st9" d="M270,243c0,2.8,0,5.6,0,8.3c-10.6,0-21.2,0-31.9,0.1c-14.4,0.1-28.9,0.2-43.3,0.3c-10.6-0.1-21.2-0.1-31.8-0.3
		c-2,0-3.9-0.3-5.9-0.4c0.1-12.3,0.1-24.7,0.2-37c2.1-0.1,4.3-0.3,6.5-0.3c20.8,0,41.6,0,62.4,0c1.2,0,2.3,0,3.5-0.2l0.3-0.1
		c0.4-0.1,0.7-0.2,1.1-0.3c0.1,0,0.1-0.1,0.2-0.1l0.1-0.1l0.2-0.1c0.1,0,0.1-0.1,0.2-0.2c0.1-0.1,0.2-0.2,0.3-0.4
		c0.3-0.5,0.5-1,0.6-1.5c0-0.1,0-0.2,0.1-0.3c0-0.2,0.1-0.5,0.1-0.7c0-0.5,0.1-1.1,0.1-1.7C244,221,256.4,232.7,270,243z"/>
	<path class="st9" d="M345.1,182.5v0.4c-3-1.6-5.9-3.4-8.8-5.2c1.7-0.1,3.3-0.4,5-0.6l1.8-0.3l1.1-0.1l0,0c0,0.2,0.1,0.5,0.1,0.7
		C344.8,179.1,345,180.8,345.1,182.5z"/>
	<path class="st20" d="M270,325.8L270,325.8L270,325.8z"/>
	<path class="st20" d="M354.7,288.8c-18.3,27.5-39.8,52.8-64.2,75.1h-2.1l-12.9,0c-4.1,0-5.6-1.5-5.6-5.6c0.1-10.8,0-21.6,0-32.5
		c11.3,0.3,22.6,0.5,33.8,0.8c3,0.1,4.1-1.4,4.1-4.3c-0.2-11.1-0.2-22.3-0.3-33.4l0.5-0.1L354.7,288.8z"/>
	<path class="st21" d="M357.1,285.1c-0.8,1.2-1.6,2.4-2.4,3.6h-46.5c0-3.4,0-6.8-0.1-10.2v-0.8c0-3.7,0-7.4-0.1-11
		C323.7,274.6,340.1,280.8,357.1,285.1z"/>
	<path class="st8" d="M232.8,408c-4.2,2.7-8.5,5.3-12.8,7.8c-7.5-4.4-14.9-9-22.1-13.8l34.9-0.1L232.8,408z"/>
	<path class="st9" d="M195,363.9c0-10.6,0-21.2,0-31.9c0-5.2,1.1-5.8,6.3-5.7c7.8,0.2,15.6-0.2,23.3-0.3c2.6,0,5.3,0.1,7.9,0.2
		c0.1,11.1,0.2,22.2,0.3,33.3c0,3.6-2.1,4.4-5.2,4.4C216.8,363.8,205.9,363.9,195,363.9z"/>
	<path class="st22" d="M383,197v0.5c-13.2-3.1-26-8-37.9-14.6v-0.4c-0.1-1.7-0.3-3.4-0.7-5.1l-0.1-0.7c-0.1-0.2-0.2-0.4-0.2-0.7
		c0.2-0.1,0.5-0.2,0.8-0.2l3.1-0.1l35,0.1c0,3.6,0,7.2,0,10.8C383,190.2,383,193.6,383,197z"/>
	<path class="st9" d="M242.2,401.9c-3.1,2.1-6.2,4.1-9.4,6.1v-6.1L242.2,401.9z"/>
	<path class="st8" d="M233,325.9c0-12.3,0-24.6-0.1-36.8l37-0.2l0.6,0.1l-0.5,36.9l0,0L233,325.9z"/>
	<path class="st9" d="M383,176l-35-0.1c-0.3-10.1-0.8-20.2-0.7-30.4c0-1.9,2.4-5.2,3.8-5.3c10.6-0.2,21.2,0.3,31.8,0.6L383,176z"/>
	<path class="st19" d="M382.9,140.8c-10.6-0.3-21.2-0.7-31.8-0.6c-1.4,0-3.8,3.4-3.8,5.3c-0.1,10.1,0.4,20.2,0.7,30.4l-3.1,0.1
		c0.1-12.3,0.2-24.6,0.3-36.9l37.7-0.5C382.8,139.2,382.9,140,382.9,140.8z"/>
	<path class="st6" d="M190.1,137.3l-2.1,1.1l-16.2,0.1c-0.2-0.1-0.5-0.1-0.7,0l-9.2-0.1c-1-3.6-2.7-7.1-2.8-10.7
		c-0.4-8.9-0.1-17.9-0.1-26.9H179C181.8,113.3,185.4,125.5,190.1,137.3z"/>
	<path class="st10" d="M159,100.8c0,9-0.3,17.9,0.1,26.9c0.2,3.6,1.8,7.1,2.8,10.7l-2.9,0.5c-0.4-1.7-1.3-3.4-1.3-5.1
		c0-23.3,0.1-46.5,0.1-69.8c0.6,1.2,1.7,2.4,1.7,3.7C159.5,78.7,159.2,89.8,159,100.8z"/>
	<path class="st21" d="M44.2,176.5c9.6-0.1,19.2-0.3,28.8-0.4c2,0,4-0.2,6-0.3H82l0.6,3.9l-0.1,34.1l-0.5-0.1l-2.9,0.1
		c-9.3,0-18.6-0.3-27.9,0c-4.7,0.1-6.3-1-6.2-6C45,197.4,44.5,187,44.2,176.5z"/>
	<path class="st8" d="M79,213.9l2.9-0.1c0,12.4,0,24.9,0.1,37.3l-3-0.2C78.2,238.6,77.2,226.2,79,213.9z"/>
	<path class="st0" d="M42.1,176.1c-1.3,0.5-2.7,1.5-4,1.5c-1.3,0-2.9,0-4.3,0.1c-0.2-0.5-0.3-1-0.5-1.6L42.1,176.1z"/>
	<path class="st19" d="M82.1,138.7L82,175.8h-3c0.5-3.7,1.2-7.4,1.4-11.1c0.3-6.6,0.6-13.3,0.2-19.9c-0.1-1.6-2.4-3.6-4.2-4.3
		c-2.4-0.9-5.2-0.7-7.9-0.7c-14.6,0-29.2-0.1-43.8-0.1l-0.2-1.1l20.2-0.2H51L82.1,138.7z"/>
	<path class="st8" d="M157.4,214.1c-0.1,12.3-0.2,24.6-0.2,36.9l-37.2,0.8l0,0c-0.1-12.7-0.1-25.4-0.2-38.2c0-12,0-23.9,0-35.9
		l-0.7-2c0.1-0.2,0.2-0.4,0.4-0.6c5.1,0.2,10.2,0.6,15.3,0.7c7.5,0.2,14.9,0.4,22.4,0.5C157.3,189.1,157.3,201.6,157.4,214.1z"/>
	<path class="st21" d="M269.9,288.8l-37,0.2c-8.4-0.1-16.9-0.2-25.3-0.2c-12.5,0-12.5,0-12.5-12.8c0-8.1-0.1-16.2-0.2-24.3
		c14.4-0.1,28.9-0.2,43.3-0.3c10.6-0.1,21.2-0.1,31.9-0.1L269.9,288.8z"/>
	<path class="st0" d="M119.8,213.7c0.1,12.7,0.1,25.4,0.2,38.2L82,252c0-0.3,0-0.6,0-0.9c0-12.4,0-24.9-0.1-37.3l0.5,0.1
		L119.8,213.7z"/>
	<path class="st0" d="M232.9,208.2c0,0.6,0,1.2-0.1,1.7c0,0.2,0,0.5-0.1,0.7c0,0.1,0,0.2-0.1,0.3c-0.1,0.5-0.3,1-0.6,1.5
		c-0.1,0.1-0.2,0.3-0.3,0.4c-0.1,0.1-0.1,0.1-0.2,0.2l-0.2,0.1l-0.1,0.1c-0.1,0-0.1,0.1-0.2,0.1c-0.3,0.1-0.7,0.3-1.1,0.3l-0.3,0.1
		c-1.1,0.1-2.3,0.2-3.5,0.2c-20.8,0-41.6,0-62.4,0c-2.2,0-4.3,0.2-6.5,0.3c0-12.5-0.1-25.1-0.1-37.6c2.5-0.2,5-0.6,7.4-0.6
		c14.9,0,29.7,0,44.6,0C216.3,187.3,224.2,198.1,232.9,208.2z"/>
	<path class="st6" d="M119.5,175.3c-0.2,0.2-0.3,0.4-0.4,0.6H81.9h0c0-12.4,0-24.7,0.1-37.1l37.2-0.1l-0.2,0.2l0.7,1L119.5,175.3z"
		/>
	<path class="st19" d="M191,139.5c-10.7-0.2-21.3-0.4-31.9-0.6l2.9-0.5l9.2,0.1l0.4,0.1l0.4-0.1l16.2-0.1l2.6,0.2
		C190.7,139,190.8,139.3,191,139.5z"/>
	<path class="st10" d="M190.6,138.7l-2.6-0.2l2.1-1.1C190.3,137.8,190.4,138.2,190.6,138.7z"/>
	<path class="st1" d="M119.7,139.8l-0.7-1L119.7,139.8z"/>
	<path class="st3" d="M308,107.1c-0.3,7.1-0.2,14.3,0,21.4c0.1,4.2-0.1,7.8-5.7,7.6c-0.7,0-1.5,1.1-2.3,1.7c0,0.2,0,0.5,0,0.7h-5
		c-8.3-11.6-15-24.3-19.7-37.7l7.5,0.1c5,0,10.1,0,15.1,0l3.8-0.1C306.2,100.7,308.2,102.2,308,107.1z"/>
	<path class="st7" d="M342.8,169.6c-0.1,1.7-2.2,4.8-3.4,4.9c-2.6,0.1-5.2,0.1-7.8,0.1c-8-5.5-15.4-11.8-22.2-18.8
		c0.1-2.8,0.2-5.6,0.3-8.5s0.2-5.6,0.3-8.5H343c0,1.7,0.1,3.3,0.1,5C343.1,152.4,343.2,161,342.8,169.6z"/>
	<path class="st10" d="M307.9,138.9h2c-0.1,2.8-0.2,5.7-0.3,8.5c-0.1,2.8-0.2,5.6-0.3,8.5c-0.6-0.6-1.1-1.2-1.7-1.8v-5.2
		C307.8,145.5,307.8,142.2,307.9,138.9z"/>
	<path class="st10" d="M345.1,139c-0.1,12.3-0.2,24.6-0.3,36.9c-0.3,0-0.5,0.1-0.8,0.2h-10.4c-0.7-0.5-1.4-1-2.1-1.5
		c2.6,0,5.2,0,7.8-0.1c1.2,0,3.4-3.1,3.4-4.9c0.4-8.6,0.2-17.2,0.3-25.8c0-1.7,0-3.3-0.1-5l1-0.2L345.1,139z"/>
	<path class="st19" d="M307.9,138.9c-0.1,3.3-0.1,6.6-0.2,9.9c-0.5-0.8-1.5-1.7-1.5-2.5c0.2-4.5-2.4-5.9-6.2-6l-3.8-0.1
		c-0.4-0.6-0.8-1.1-1.2-1.7h5l0.4,0.1l0.4-0.1L307.9,138.9z"/>
	<path class="st12" d="M300.8,138.5l-0.4,0.1l-0.4-0.1c0-0.2,0-0.5,0-0.7C300.3,138,300.6,138.3,300.8,138.5z"/>
	<path class="st0" d="M308.2,288.8l-0.5,0.1h-37.2l-0.6-0.1c0-12.5,0.1-25,0.1-37.5c0-2.8,0-5.6,0-8.3c11.9,9.1,24.6,17,38,23.7
		c0,3.7,0.1,7.4,0.1,11v0.8C308.1,282,308.1,285.4,308.2,288.8z"/>
	<path class="st9" d="M306.2,146.3c0.2-4.5-2.4-5.9-6.2-6l-3.8-0.1c3.5,4.8,7.4,9.4,11.5,13.7v-5.2
		C307.2,148,306.2,147.1,306.2,146.3z"/>
	<path class="st19" d="M344.3,176.7l-1.1,0.1l-1.8,0.3c-1.6,0.2-3.3,0.5-5,0.6c-0.9-0.6-1.8-1.1-2.6-1.7h10.4
		C344.1,176.3,344.2,176.5,344.3,176.7z"/>
	<path class="st9" d="M270.5,289h37.2c0.1,11.1,0.1,22.3,0.3,33.4c0,2.9-1.1,4.4-4.1,4.3c-11.3-0.3-22.6-0.5-33.9-0.8L270.5,289z"/>
	<path class="st10" d="M171.8,138.5l-0.4,0.1h-0.4C171.4,138.5,171.6,138.4,171.8,138.5z"/>
	<path class="st9" d="M119.8,213.7l-37.4,0.2c0-11.4,0.1-22.8,0.1-34.1c3-0.6,6-1.7,9.1-1.8c9.4-0.2,18.8-0.1,28.2-0.1
		C119.8,189.8,119.8,201.8,119.8,213.7z"/>
	<path class="st19" d="M119.8,177.8c-9.4,0-18.8-0.1-28.2,0.1c-3,0.1-6,1.2-9.1,1.8l-0.6-3.9h37.2L119.8,177.8z"/>
</g>
</svg>
